<?xml version="1.0" encoding="utf-8"?>
<!DOCTYPE svg PUBLIC "-//W3C//DTD SVG 1.1//EN" "http://www.w3.org/Graphics/SVG/1.1/DTD/svg11.dtd">
<svg version="1.1" id="Layer_1" xmlns="http://www.w3.org/2000/svg" xmlns:xlink="http://www.w3.org/1999/xlink" x="0px" y="0px" width="101px" height="171px" viewBox="0 0 75.761 128.268" enable-background="new 0 0 75.761 128.268" xml:space="preserve">
<defs>
	<linearGradient id="blockoutline-fill-gradient" gradientUnits="userSpaceOnUse" x1="37.8101" y1="127.7656" x2="37.8101" y2="37.9849">
		<stop  offset="0.32" style="stop-color:#4B985C"/>
		<stop  offset="0.36" style="stop-color:#5FC148"/>
	</linearGradient>
	<linearGradient id="blockoutline-stroke-gradient" gradientUnits="userSpaceOnUse" x1="37.8096" y1="128.2588" x2="37.8096" y2="37.4922">
		<stop  offset="0" style="stop-color:#123609"/>
		<stop  offset="0.9883" style="stop-color:#388454"/>
	</linearGradient>
	<linearGradient id="outlinel-gradient" gradientUnits="userSpaceOnUse" x1="36.2085" y1="96.25" x2="36.2085" y2="39.1279">
		<stop  offset="0.0793" style="stop-color:#ABE383;stop-opacity:0"/>
		<stop  offset="0.1319" style="stop-color:#ABE383;stop-opacity:0.12"/>
		<stop  offset="1" style="stop-color:#ABE383"/>
	</linearGradient>
	<linearGradient id="outliner-gradient" gradientUnits="userSpaceOnUse" x1="71.877" y1="123.585" x2="71.877" y2="43.2495">
		<stop  offset="0.0793" style="stop-color:#ABE383;stop-opacity:0"/>
		<stop  offset="0.1319" style="stop-color:#ABE383;stop-opacity:0.12"/>
		<stop  offset="1" style="stop-color:#ABE383"/>
	</linearGradient>
	<linearGradient id="grass-patch-gradient" gradientUnits="userSpaceOnUse" x1="21.9375" y1="57.1367" x2="21.9375" y2="45.2495">
		<stop  offset="0.0793" style="stop-color:#ABE383;stop-opacity:0"/>
		<stop  offset="0.1319" style="stop-color:#ABE383;stop-opacity:0.12"/>
		<stop  offset="1" style="stop-color:#ABE383"/>
	</linearGradient>
	<linearGradient id="grass-standout-fillgradient" gradientUnits="userSpaceOnUse" x1="14.25" y1="43.125" x2="14.25" y2="29.9971">
		<stop  offset="0.0793" style="stop-color:#ABE383;stop-opacity:0"/>
		<stop  offset="0.1319" style="stop-color:#ABE383;stop-opacity:0.12"/>
		<stop  offset="1" style="stop-color:#ABE383"/>
	</linearGradient>
	<linearGradient id="grass-standout-strokegradient" gradientUnits="userSpaceOnUse" x1="14.6333" y1="43.1616" x2="14.6333" y2="29.7471">
		<stop  offset="0.0793" style="stop-color:#ABE383;stop-opacity:0"/>
		<stop  offset="0.1319" style="stop-color:#ABE383;stop-opacity:0.12"/>
		<stop  offset="1" style="stop-color:#466813"/>
	</linearGradient>
	<path id="grass-patch" fill="url(#grass-patch-gradient)" d="M17.375,55.583c0,0-0.625-5.958-2.5-8.583c0,0,3.125,1.415,4.875,8.583c0,0,1.25-1.958,1.5-10.333c0,0,1.625,3.916,2,10.333c0,0,2.5-5.208,5.75-6.958c0,0-1.875,2.75-3.375,8.125C25.625,56.75,20.625,58.165,17.375,55.583z"/>
</defs>
<path id="blockoutline" fill="url(#blockoutline-fill-gradient)" stroke="url(#blockoutline-stroke-gradient)" stroke-width="0.9852" d="M74.994,121.817c0,6.554-2.33,5.933-8.835,5.933H9.46c-6.506,0-8.835,0.621-8.835-5.933V43.933C0.625,37.379,2.954,38,9.46,38h58.662
	c6.506,0,6.872-0.621,6.872,5.933V121.817z"/>
<circle fill="#52864C" cx="3.625" cy="103.5" r="2"/>
<circle fill="#52864C" cx="11.375" cy="109.5" r="3.5"/>
<circle fill="#52864C" cx="20" cy="120" r="3.75"/>
<circle fill="#52864C" cx="7.875" cy="121.125" r="2.125"/>
<circle fill="#52864C" cx="22" cy="104.875" r="2.25"/>
<circle fill="#52864C" cx="29.875" cy="113" r="2.375"/>
<circle fill="#52864C" cx="38.875" cy="104.875" r="3.875"/>
<circle fill="#52864C" cx="53.125" cy="108" r="3.625"/>
<circle fill="#52864C" cx="42.75" cy="119" r="3.875"/>
<circle fill="#52864C" cx="57.625" cy="121.125" r="2.375"/>
<circle fill="#52864C" cx="67.25" cy="105.5" r="2.25"/>
<circle fill="#52864C" cx="69.5" cy="117.375" r="2.5"/>
<path id="outlinel" fill="none" stroke="url(#outlinel-gradient)" stroke-width="1" d="M2.059,96.25V41.625c0,0,0-2,1.732-2c1.733,0,67.064,0,67.064,0"/>
<path id="outliner" fill="none" stroke="url(#outliner-gradient)" stroke-width="1" d="M73.577,43.25L73.702,117c0,0,0,4.5-3.96,6.125"/>

<use xlink:href="#grass-patch" x="-9" y="10" transform="scale(0.8)"/>
<use xlink:href="#grass-patch" x="-7" y="25" transform="scale(0.8)"/>
<use xlink:href="#grass-patch" x="-9" y="23"/>
<use xlink:href="#grass-patch" x="-4" y="60" transform="scale(0.8)"/>

<use xlink:href="#grass-patch" x="3" y="0"/>
<use xlink:href="#grass-patch" x="19" y="19" transform="scale(0.8)"/>
<use xlink:href="#grass-patch" x="17" y="39" transform="scale(0.8)"/>
<use xlink:href="#grass-patch" x="20" y="53" transform="scale(0.8)"/>

<use xlink:href="#grass-patch" x="42" y="10" transform="scale(0.8)"/>
<use xlink:href="#grass-patch" x="39" y="25" transform="scale(0.8)"/>
<use xlink:href="#grass-patch" x="24" y="23"/>
<use xlink:href="#grass-patch" x="38" y="60" transform="scale(0.8)"/>

<use xlink:href="#grass-patch" x="65" y="10" transform="scale(0.8)"/>
<use xlink:href="#grass-patch" x="40" y="10"/>
<use xlink:href="#grass-patch" x="60" y="45" transform="scale(0.8)"/>
<use xlink:href="#grass-patch" x="62" y="60" transform="scale(0.8)"/>

<path id="grass-standout-1a" fill="url(#grass-standout-fillgradient)" stroke="url(#grass-standout-strokegradient)" stroke-width="0.5" d="
	M8.625,41.875c0,0-0.375-7.5-3-9.625c0,0,4.25,2.957,6.375,8.416c0,0,1.5-8.416,0.75-10.666c0,0,1.75-0.5,2.125,11.5c0,0,3.875-6,8-8.75c0,0-4.75,7-5.25,10.375">
	<animate dur="4s" repeatCount="indefinite" attributeName="d" values="
	M8.625,41.875c0,0-0.375-7.5-3-9.625c0,0,4.25,2.957,6.375,8.416c0,0,1.5-8.416,0.75-10.666c0,0,1.75-0.5,2.125,11.5c0,0,3.875-6,8-8.75c0,0-4.75,7-5.25,10.375;
	M8.625,41.875c0,0-0.375-7.5-3-9.625c0,0,4.25,2.957,6.375,8.416c0,0,1.5-8.416,0.75-10.666c0,0,1.75-0.5,2.125,11.5c0,0,3.875-6,8-8.75c0,0-4.75,7-5.25,10.375;
	M8.625,41.875c0,0-0.375-7.5-3-9.625c0,0,4.25,2.957,6.375,8.416c0,0,1.5-8.416,0.75-10.666c0,0,1.75-0.5,2.125,11.5c0,0,3.875-6,8-8.75c0,0-4.75,7-5.25,10.375;
	M8.625,41.875c0,0-0.375-7.5-3-9.625c0,0,4.25,2.957,6.375,8.416c0,0,1.5-8.416,0.75-10.666c0,0,1.75-0.5,2.125,11.5c0,0,3.875-6,8-8.75c0,0-4.75,7-5.25,10.375;
	M8.625,41.875c0,0-0.375-7.5-3-9.625c0,0,4.25,2.957,6.375,8.416c0,0,1.5-8.416,0.75-10.666c0,0,1.75-0.5,2.125,11.5c0,0,3.875-6,8-8.75c0,0-4.75,7-5.25,10.375;
	M8.625,41.875c0,0-0.375-7.5-3-9.625c0,0,4.25,2.957,6.375,8.416c0,0,1.5-8.416,0.75-10.666c0,0,1.75-0.5,2.125,11.5c0,0,3.875-6,8-8.75c0,0-4.75,7-5.25,10.375;
	M8.625,41.875c0,0-0.375-7.5-3-9.625c0,0,4.25,2.957,6.375,8.416c0,0,1.5-8.416,0.75-10.666c0,0,1.75-0.5,2.125,11.5c0,0,3.875-6,8-8.75c0,0-4.75,7-5.25,10.375;
	M8.625,41.875c0,0-0.375-7.5-3-9.625c0,0,4.25,2.957,6.375,8.416c0,0,1.5-8.416,0.75-10.666c0,0,1.75-0.5,2.125,11.5c0,0,3.875-6,8-8.75c0,0-4.75,7-5.25,10.375;
	M8.625,41.875c0,0-0.375-7.5-3-9.625c0,0,4.25,2.957,6.375,8.416c0,0,1.5-8.416,0.75-10.666c0,0,1.75-0.5,2.125,11.5c0,0,3.875-6,8-8.75c0,0-4.75,7-5.25,10.375;
	M8.625,41.875c0,0-2.375-5.75-5-7.875c0,0,6.25,1.207,8.375,6.666c0,0-0.75-4.105-4.125-9.166c0,0,1.5-1.503,7,10c0,0,0.888-4.939,4-9.125c0,0-1.42,5.624-1.25,10.75;
	M8.625,41.875c0,0-0.375-7.5-3-9.625c0,0,4.25,2.957,6.375,8.416c0,0,1.5-8.416,0.75-10.666c0,0,1.75-0.5,2.125,11.5c0,0,3.875-6,8-8.75c0,0-4.75,7-5.25,10.375;
	M8.625,41.875c0,0-2.375-5.75-5-7.875c0,0,6.25,1.207,8.375,6.666c0,0-0.75-4.105-4.125-9.166c0,0,1.5-1.503,7,10c0,0,0.888-4.939,4-9.125c0,0-1.42,5.624-1.25,10.75;
	M8.625,41.875c0,0-0.375-7.5-3-9.625c0,0,4.25,2.957,6.375,8.416c0,0,1.5-8.416,0.75-10.666c0,0,1.75-0.5,2.125,11.5c0,0,3.875-6,8-8.75c0,0-4.75,7-5.25,10.375;"/>
</path>
<path id="grass-standout-2" fill="url(#grass-standout-fillgradient)" stroke="url(#grass-standout-strokegradient)" stroke-width="0.5" d="M32.25,41.875c0,0-0.625-5.25-3.25-7.375c0,0,3.875,0.707,6,6.166c0,0,1.016-4.582,1.375-7.916c0,0,1.505-0.724,2.5,7.367c0,0,3-4.785,7-5.367c0,0-4.148,3.132-4.648,6.507"/>
<path id="grass-standout-3" fill="url(#grass-standout-fillgradient)" stroke="url(#grass-standout-strokegradient)" stroke-width="0.5" d="M56.75,41.875c0,0,0-6.542-0.875-8.375c0,0,1.75,0.716,3.5,7.757c0,0,2.875-2.007,5.625-8.523c0,0,0,3.828-2.5,9.142"/>
</svg>
